<svg width="912" height="778" viewBox="0 0 912 778" fill="none" xmlns="http://www.w3.org/2000/svg">
<path d="M517 498L705.5 628L814 508" stroke="#47525D" stroke-width="2" stroke-linejoin="round" stroke-dasharray="2 2"/>
<path d="M247.5 494H49L50.5 624" stroke="#47525D" stroke-width="2" stroke-linejoin="round"/>
<path d="M651.5 728H383L384.5 538" stroke="#47525D" stroke-width="2" stroke-linejoin="round" stroke-dasharray="2 2"/>
<rect y="644" width="100" height="100" rx="50" fill="url(#paint0_linear)"/>
<rect x="672" y="678" width="100" height="100" rx="50" fill="url(#paint1_linear)"/>
<rect x="812" y="408" width="100" height="100" rx="50" fill="url(#paint2_linear)"/>
<line x1="416.5" y1="97" x2="416.5" y2="256" stroke="#164664" stroke-dasharray="2 2"/>
<path d="M419 218.5L544 178.5H669" stroke="black" stroke-dasharray="2 2"/>
<path d="M164 178.5H289L414 218.5" stroke="black" stroke-dasharray="2 2"/>
<path fill-rule="evenodd" clip-rule="evenodd" d="M448.331 186.3C498.2 179.434 546.784 200.887 591.31 224.371C639.031 249.541 686.508 278.992 713.088 325.941C740.81 374.909 780.362 448.642 741.094 488.945C690.099 541.283 581.004 465.581 528.011 515.895C483.268 558.377 570.705 659.492 521.82 697.135C482.011 727.789 448.344 624.035 398.856 615.347C338.321 604.719 270.121 680.552 220.533 644.24C175.544 611.296 230.385 533.943 214.639 480.452C194.636 412.496 85.4379 358.904 118.031 296.009C151.457 231.506 259.652 283.443 328.598 260.543C374.086 245.434 400.847 192.838 448.331 186.3Z" fill="#164664"/>
<path d="M278.104 356H270.78V340.766H256.498V356H249.174V320.453H256.498V334.857H270.78V320.453H278.104V356ZM296.22 356.488C292.346 356.488 289.188 355.3 286.747 352.924C284.322 350.548 283.109 347.382 283.109 343.427V342.743C283.109 340.09 283.622 337.722 284.647 335.639C285.673 333.539 287.121 331.928 288.993 330.805C290.881 329.665 293.03 329.096 295.438 329.096C299.052 329.096 301.892 330.235 303.959 332.514C306.042 334.792 307.084 338.023 307.084 342.206V345.087H290.263C290.491 346.812 291.174 348.196 292.313 349.237C293.469 350.279 294.926 350.8 296.684 350.8C299.402 350.8 301.526 349.815 303.056 347.846L306.522 351.728C305.465 353.225 304.032 354.397 302.226 355.243C300.419 356.073 298.417 356.488 296.22 356.488ZM295.414 334.809C294.014 334.809 292.875 335.281 291.996 336.225C291.133 337.169 290.58 338.52 290.336 340.277H300.15V339.716C300.118 338.153 299.695 336.949 298.881 336.103C298.067 335.24 296.911 334.809 295.414 334.809ZM318.559 356H311.479V318.5H318.559V356ZM331.84 356H324.76V318.5H331.84V356ZM336.576 342.548C336.576 339.927 337.081 337.592 338.09 335.541C339.099 333.49 340.548 331.903 342.436 330.78C344.34 329.657 346.545 329.096 349.052 329.096C352.616 329.096 355.521 330.186 357.768 332.367C360.03 334.548 361.291 337.51 361.552 341.254L361.601 343.061C361.601 347.113 360.469 350.368 358.207 352.826C355.945 355.268 352.909 356.488 349.101 356.488C345.292 356.488 342.248 355.268 339.97 352.826C337.707 350.385 336.576 347.064 336.576 342.865V342.548ZM343.632 343.061C343.632 345.567 344.104 347.488 345.048 348.822C345.992 350.141 347.343 350.8 349.101 350.8C350.81 350.8 352.144 350.149 353.104 348.847C354.065 347.528 354.545 345.429 354.545 342.548C354.545 340.09 354.065 338.186 353.104 336.835C352.144 335.484 350.793 334.809 349.052 334.809C347.326 334.809 345.992 335.484 345.048 336.835C344.104 338.17 343.632 340.245 343.632 343.061ZM367.777 364.911L364.091 362.982L364.97 361.396C366.06 359.41 366.622 357.432 366.654 355.463V349.994H372.611L372.587 354.877C372.571 356.684 372.115 358.507 371.22 360.346C370.325 362.185 369.177 363.707 367.777 364.911ZM256.962 415H249.638V379.453H256.962V415ZM291.068 415C290.743 414.365 290.507 413.576 290.36 412.632C288.651 414.536 286.43 415.488 283.695 415.488C281.107 415.488 278.959 414.74 277.25 413.242C275.557 411.745 274.711 409.857 274.711 407.578C274.711 404.779 275.744 402.63 277.812 401.133C279.895 399.635 282.898 398.879 286.82 398.862H290.067V397.349C290.067 396.128 289.75 395.151 289.115 394.419C288.497 393.687 287.512 393.32 286.161 393.32C284.973 393.32 284.037 393.605 283.354 394.175C282.686 394.744 282.353 395.526 282.353 396.519H275.297C275.297 394.989 275.769 393.573 276.713 392.271C277.657 390.968 278.992 389.951 280.717 389.219C282.442 388.47 284.379 388.096 286.527 388.096C289.783 388.096 292.362 388.918 294.267 390.562C296.187 392.189 297.147 394.484 297.147 397.446V408.896C297.164 411.403 297.514 413.299 298.197 414.585V415H291.068ZM285.233 410.093C286.275 410.093 287.235 409.865 288.114 409.409C288.993 408.937 289.644 408.311 290.067 407.529V402.988H287.431C283.899 402.988 282.019 404.209 281.791 406.65L281.767 407.065C281.767 407.944 282.076 408.669 282.694 409.238C283.313 409.808 284.159 410.093 285.233 410.093ZM309.184 388.584L309.403 391.538C311.275 389.243 313.806 388.096 316.996 388.096C320.398 388.096 322.733 389.438 324.003 392.124C325.858 389.438 328.503 388.096 331.938 388.096C334.802 388.096 336.934 388.934 338.334 390.61C339.734 392.271 340.434 394.777 340.434 398.13V415H333.354V398.154C333.354 396.657 333.061 395.566 332.475 394.883C331.889 394.183 330.855 393.833 329.374 393.833C327.258 393.833 325.793 394.842 324.979 396.86L325.004 415H317.948V398.179C317.948 396.649 317.647 395.542 317.045 394.858C316.443 394.175 315.417 393.833 313.969 393.833C311.967 393.833 310.518 394.663 309.623 396.323V415H302.567V388.584H309.184ZM387.724 415H380.399V399.766H366.117V415H358.793V379.453H366.117V393.857H380.399V379.453H387.724V415ZM401.127 415H394.047V388.584H401.127V415ZM393.632 381.748C393.632 380.69 393.982 379.819 394.682 379.136C395.398 378.452 396.366 378.11 397.587 378.11C398.791 378.11 399.752 378.452 400.468 379.136C401.184 379.819 401.542 380.69 401.542 381.748C401.542 382.822 401.176 383.701 400.443 384.385C399.727 385.068 398.775 385.41 397.587 385.41C396.399 385.41 395.438 385.068 394.706 384.385C393.99 383.701 393.632 382.822 393.632 381.748ZM435.331 403.159C435.054 406.984 433.638 409.995 431.083 412.192C428.544 414.39 425.191 415.488 421.024 415.488C416.467 415.488 412.878 413.958 410.258 410.898C407.654 407.822 406.352 403.607 406.352 398.252V396.079C406.352 392.661 406.954 389.65 408.158 387.046C409.363 384.442 411.08 382.448 413.31 381.064C415.556 379.665 418.16 378.965 421.122 378.965C425.224 378.965 428.528 380.063 431.034 382.261C433.541 384.458 434.989 387.542 435.38 391.514H428.056C427.877 389.219 427.234 387.559 426.127 386.533C425.036 385.492 423.368 384.971 421.122 384.971C418.681 384.971 416.85 385.85 415.629 387.607C414.424 389.349 413.806 392.059 413.773 395.737V398.423C413.773 402.264 414.351 405.072 415.507 406.846C416.679 408.62 418.518 409.507 421.024 409.507C423.287 409.507 424.971 408.994 426.078 407.969C427.201 406.927 427.844 405.324 428.007 403.159H435.331ZM446.562 391.465C448.433 389.219 450.785 388.096 453.617 388.096C459.346 388.096 462.252 391.424 462.333 398.081V415H455.277V398.276C455.277 396.763 454.952 395.648 454.301 394.932C453.65 394.199 452.567 393.833 451.054 393.833C448.987 393.833 447.489 394.631 446.562 396.226V415H439.506V377.5H446.562V391.465ZM482.963 415C482.637 414.365 482.401 413.576 482.255 412.632C480.546 414.536 478.324 415.488 475.59 415.488C473.002 415.488 470.854 414.74 469.145 413.242C467.452 411.745 466.605 409.857 466.605 407.578C466.605 404.779 467.639 402.63 469.706 401.133C471.789 399.635 474.792 398.879 478.715 398.862H481.962V397.349C481.962 396.128 481.645 395.151 481.01 394.419C480.391 393.687 479.407 393.32 478.056 393.32C476.868 393.32 475.932 393.605 475.248 394.175C474.581 394.744 474.247 395.526 474.247 396.519H467.191C467.191 394.989 467.663 393.573 468.607 392.271C469.551 390.968 470.886 389.951 472.611 389.219C474.337 388.47 476.273 388.096 478.422 388.096C481.677 388.096 484.257 388.918 486.161 390.562C488.082 392.189 489.042 394.484 489.042 397.446V408.896C489.058 411.403 489.408 413.299 490.092 414.585V415H482.963ZM477.128 410.093C478.17 410.093 479.13 409.865 480.009 409.409C480.888 408.937 481.539 408.311 481.962 407.529V402.988H479.325C475.793 402.988 473.913 404.209 473.686 406.65L473.661 407.065C473.661 407.944 473.97 408.669 474.589 409.238C475.207 409.808 476.054 410.093 477.128 410.093ZM502.909 382.09V388.584H507.426V393.76H502.909V406.943C502.909 407.92 503.096 408.62 503.471 409.043C503.845 409.466 504.561 409.678 505.619 409.678C506.4 409.678 507.092 409.621 507.694 409.507V414.854C506.311 415.277 504.887 415.488 503.422 415.488C498.474 415.488 495.951 412.99 495.854 407.993V393.76H491.996V388.584H495.854V382.09H502.909ZM521.22 405.015L526.103 388.584H533.671L523.051 419.102L522.465 420.493C520.886 423.944 518.282 425.669 514.652 425.669C513.627 425.669 512.585 425.514 511.527 425.205V419.858L512.602 419.883C513.936 419.883 514.929 419.679 515.58 419.272C516.247 418.866 516.768 418.19 517.143 417.246L517.973 415.073L508.72 388.584H516.312L521.22 405.015ZM558.939 379.453L568.07 405.234L577.152 379.453H586.771V415H579.423V405.283L580.155 388.511L570.561 415H565.531L555.961 388.535L556.693 405.283V415H549.369V379.453H558.939ZM604.862 415.488C600.989 415.488 597.831 414.3 595.39 411.924C592.965 409.548 591.752 406.382 591.752 402.427V401.743C591.752 399.09 592.265 396.722 593.29 394.639C594.315 392.539 595.764 390.928 597.636 389.805C599.524 388.665 601.672 388.096 604.081 388.096C607.694 388.096 610.535 389.235 612.602 391.514C614.685 393.792 615.727 397.023 615.727 401.206V404.087H598.905C599.133 405.812 599.817 407.196 600.956 408.237C602.112 409.279 603.568 409.8 605.326 409.8C608.044 409.8 610.168 408.815 611.698 406.846L615.165 410.728C614.107 412.225 612.675 413.397 610.868 414.243C609.062 415.073 607.06 415.488 604.862 415.488ZM604.057 393.809C602.657 393.809 601.518 394.281 600.639 395.225C599.776 396.169 599.223 397.52 598.979 399.277H608.793V398.716C608.76 397.153 608.337 395.949 607.523 395.103C606.71 394.24 605.554 393.809 604.057 393.809ZM634.062 407.7C634.062 406.838 633.63 406.162 632.768 405.674C631.921 405.169 630.554 404.722 628.666 404.331C622.383 403.013 619.242 400.343 619.242 396.323C619.242 393.979 620.211 392.026 622.147 390.464C624.101 388.885 626.648 388.096 629.789 388.096C633.142 388.096 635.819 388.885 637.821 390.464C639.84 392.043 640.849 394.093 640.849 396.616H633.793C633.793 395.607 633.467 394.777 632.816 394.126C632.165 393.459 631.148 393.125 629.765 393.125C628.576 393.125 627.657 393.394 627.006 393.931C626.355 394.468 626.029 395.151 626.029 395.981C626.029 396.763 626.396 397.397 627.128 397.886C627.877 398.358 629.13 398.773 630.888 399.131C632.646 399.473 634.127 399.863 635.331 400.303C639.058 401.67 640.922 404.038 640.922 407.407C640.922 409.816 639.888 411.769 637.821 413.267C635.754 414.748 633.085 415.488 629.813 415.488C627.6 415.488 625.631 415.098 623.905 414.316C622.196 413.519 620.854 412.437 619.877 411.069C618.9 409.686 618.412 408.197 618.412 406.602H625.102C625.167 407.855 625.631 408.815 626.493 409.482C627.356 410.15 628.511 410.483 629.96 410.483C631.311 410.483 632.328 410.231 633.012 409.727C633.712 409.206 634.062 408.53 634.062 407.7ZM659.794 407.7C659.794 406.838 659.363 406.162 658.5 405.674C657.654 405.169 656.286 404.722 654.398 404.331C648.116 403.013 644.975 400.343 644.975 396.323C644.975 393.979 645.943 392.026 647.88 390.464C649.833 388.885 652.38 388.096 655.521 388.096C658.874 388.096 661.552 388.885 663.554 390.464C665.572 392.043 666.581 394.093 666.581 396.616H659.525C659.525 395.607 659.2 394.777 658.549 394.126C657.898 393.459 656.881 393.125 655.497 393.125C654.309 393.125 653.389 393.394 652.738 393.931C652.087 394.468 651.762 395.151 651.762 395.981C651.762 396.763 652.128 397.397 652.86 397.886C653.609 398.358 654.862 398.773 656.62 399.131C658.378 399.473 659.859 399.863 661.063 400.303C664.791 401.67 666.654 404.038 666.654 407.407C666.654 409.816 665.621 411.769 663.554 413.267C661.487 414.748 658.817 415.488 655.546 415.488C653.332 415.488 651.363 415.098 649.638 414.316C647.929 413.519 646.586 412.437 645.609 411.069C644.633 409.686 644.145 408.197 644.145 406.602H650.834C650.899 407.855 651.363 408.815 652.226 409.482C653.088 410.15 654.244 410.483 655.692 410.483C657.043 410.483 658.061 410.231 658.744 409.727C659.444 409.206 659.794 408.53 659.794 407.7ZM686.527 415C686.202 414.365 685.966 413.576 685.819 412.632C684.11 414.536 681.889 415.488 679.154 415.488C676.566 415.488 674.418 414.74 672.709 413.242C671.016 411.745 670.17 409.857 670.17 407.578C670.17 404.779 671.203 402.63 673.271 401.133C675.354 399.635 678.357 398.879 682.279 398.862H685.526V397.349C685.526 396.128 685.209 395.151 684.574 394.419C683.956 393.687 682.971 393.32 681.62 393.32C680.432 393.32 679.496 393.605 678.812 394.175C678.145 394.744 677.812 395.526 677.812 396.519H670.756C670.756 394.989 671.228 393.573 672.172 392.271C673.116 390.968 674.451 389.951 676.176 389.219C677.901 388.47 679.838 388.096 681.986 388.096C685.242 388.096 687.821 388.918 689.726 390.562C691.646 392.189 692.606 394.484 692.606 397.446V408.896C692.623 411.403 692.973 413.299 693.656 414.585V415H686.527ZM680.692 410.093C681.734 410.093 682.694 409.865 683.573 409.409C684.452 408.937 685.103 408.311 685.526 407.529V402.988H682.89C679.358 402.988 677.478 404.209 677.25 406.65L677.226 407.065C677.226 407.944 677.535 408.669 678.153 409.238C678.772 409.808 679.618 410.093 680.692 410.093ZM704.521 388.584L704.74 391.636C706.628 389.276 709.159 388.096 712.333 388.096C715.132 388.096 717.216 388.918 718.583 390.562C719.95 392.205 720.65 394.663 720.683 397.935V415H713.627V398.105C713.627 396.608 713.301 395.526 712.65 394.858C711.999 394.175 710.917 393.833 709.403 393.833C707.418 393.833 705.928 394.679 704.936 396.372V415H697.88V388.584H704.521ZM725.028 401.597C725.028 397.544 725.989 394.281 727.909 391.807C729.846 389.333 732.45 388.096 735.722 388.096C738.619 388.096 740.873 389.089 742.484 391.074L742.777 388.584H749.174V414.121C749.174 416.432 748.645 418.442 747.587 420.151C746.545 421.86 745.072 423.162 743.168 424.058C741.264 424.953 739.034 425.4 736.479 425.4C734.542 425.4 732.654 425.01 730.814 424.229C728.975 423.464 727.584 422.471 726.64 421.25L729.765 416.953C731.522 418.923 733.655 419.907 736.161 419.907C738.033 419.907 739.49 419.403 740.531 418.394C741.573 417.401 742.094 415.985 742.094 414.146V412.729C740.466 414.569 738.326 415.488 735.673 415.488C732.499 415.488 729.927 414.251 727.958 411.777C726.005 409.287 725.028 405.991 725.028 401.89V401.597ZM732.084 402.109C732.084 404.502 732.564 406.382 733.524 407.749C734.485 409.1 735.803 409.775 737.479 409.775C739.628 409.775 741.166 408.97 742.094 407.358V396.25C741.15 394.639 739.628 393.833 737.528 393.833C735.836 393.833 734.501 394.525 733.524 395.908C732.564 397.292 732.084 399.359 732.084 402.109Z" fill="white"/>
<path d="M766.776 415.488C762.903 415.488 759.745 414.3 757.304 411.924C754.879 409.548 753.666 406.382 753.666 402.427V401.743C753.666 399.09 754.179 396.722 755.204 394.639C756.229 392.539 757.678 390.928 759.55 389.805C761.438 388.665 763.586 388.096 765.995 388.096C769.608 388.096 772.449 389.235 774.516 391.514C776.599 393.792 777.641 397.023 777.641 401.206V404.087H760.819C761.047 405.812 761.731 407.196 762.87 408.237C764.026 409.279 765.482 409.8 767.24 409.8C769.958 409.8 772.082 408.815 773.612 406.846L777.079 410.728C776.021 412.225 774.589 413.397 772.782 414.243C770.976 415.073 768.974 415.488 766.776 415.488ZM765.971 393.809C764.571 393.809 763.432 394.281 762.553 395.225C761.69 396.169 761.137 397.52 760.893 399.277H770.707V398.716C770.674 397.153 770.251 395.949 769.438 395.103C768.624 394.24 767.468 393.809 765.971 393.809ZM796.513 395.2C795.552 395.07 794.706 395.005 793.974 395.005C791.304 395.005 789.555 395.908 788.725 397.715V415H781.669V388.584H788.334L788.529 391.733C789.945 389.308 791.907 388.096 794.413 388.096C795.194 388.096 795.927 388.201 796.61 388.413L796.513 395.2Z" fill="#164664"/>
<path d="M303.652 13.6055C303.652 12.8555 303.387 12.2773 302.855 11.8711C302.332 11.4648 301.383 11.0547 300.008 10.6406C298.633 10.2266 297.539 9.76562 296.727 9.25781C295.172 8.28125 294.395 7.00781 294.395 5.4375C294.395 4.0625 294.953 2.92969 296.07 2.03906C297.195 1.14844 298.652 0.703125 300.441 0.703125C301.629 0.703125 302.688 0.921875 303.617 1.35938C304.547 1.79687 305.277 2.42188 305.809 3.23438C306.34 4.03906 306.605 4.93359 306.605 5.91797H303.652C303.652 5.02734 303.371 4.33203 302.809 3.83203C302.254 3.32422 301.457 3.07031 300.418 3.07031C299.449 3.07031 298.695 3.27734 298.156 3.69141C297.625 4.10547 297.359 4.68359 297.359 5.42578C297.359 6.05078 297.648 6.57422 298.227 6.99609C298.805 7.41016 299.758 7.81641 301.086 8.21484C302.414 8.60547 303.48 9.05469 304.285 9.5625C305.09 10.0625 305.68 10.6406 306.055 11.2969C306.43 11.9453 306.617 12.707 306.617 13.582C306.617 15.0039 306.07 16.1367 304.977 16.9805C303.891 17.8164 302.414 18.2344 300.547 18.2344C299.312 18.2344 298.176 18.0078 297.137 17.5547C296.105 17.0938 295.301 16.4609 294.723 15.6562C294.152 14.8516 293.867 13.9141 293.867 12.8438H296.832C296.832 13.8125 297.152 14.5625 297.793 15.0938C298.434 15.625 299.352 15.8906 300.547 15.8906C301.578 15.8906 302.352 15.6836 302.867 15.2695C303.391 14.8477 303.652 14.293 303.652 13.6055ZM314.527 18.2344C312.723 18.2344 311.258 17.668 310.133 16.5352C309.016 15.3945 308.457 13.8789 308.457 11.9883V11.6367C308.457 10.3711 308.699 9.24219 309.184 8.25C309.676 7.25 310.363 6.47266 311.246 5.91797C312.129 5.36328 313.113 5.08594 314.199 5.08594C315.926 5.08594 317.258 5.63672 318.195 6.73828C319.141 7.83984 319.613 9.39844 319.613 11.4141V12.5625H311.328C311.414 13.6094 311.762 14.4375 312.371 15.0469C312.988 15.6562 313.762 15.9609 314.691 15.9609C315.996 15.9609 317.059 15.4336 317.879 14.3789L319.414 15.8438C318.906 16.6016 318.227 17.1914 317.375 17.6133C316.531 18.0273 315.582 18.2344 314.527 18.2344ZM314.188 7.37109C313.406 7.37109 312.773 7.64453 312.289 8.19141C311.812 8.73828 311.508 9.5 311.375 10.4766H316.801V10.2656C316.738 9.3125 316.484 8.59375 316.039 8.10938C315.594 7.61719 314.977 7.37109 314.188 7.37109ZM327.043 15.9609C327.754 15.9609 328.344 15.7539 328.812 15.3398C329.281 14.9258 329.531 14.4141 329.562 13.8047H332.246C332.215 14.5938 331.969 15.332 331.508 16.0195C331.047 16.6992 330.422 17.2383 329.633 17.6367C328.844 18.0352 327.992 18.2344 327.078 18.2344C325.305 18.2344 323.898 17.6602 322.859 16.5117C321.82 15.3633 321.301 13.7773 321.301 11.7539V11.4609C321.301 9.53125 321.816 7.98828 322.848 6.83203C323.879 5.66797 325.285 5.08594 327.066 5.08594C328.574 5.08594 329.801 5.52734 330.746 6.41016C331.699 7.28516 332.199 8.4375 332.246 9.86719H329.562C329.531 9.14062 329.281 8.54297 328.812 8.07422C328.352 7.60547 327.762 7.37109 327.043 7.37109C326.121 7.37109 325.41 7.70703 324.91 8.37891C324.41 9.04297 324.156 10.0547 324.148 11.4141V11.8711C324.148 13.2461 324.395 14.2734 324.887 14.9531C325.387 15.625 326.105 15.9609 327.043 15.9609ZM342.078 16.7578C341.242 17.7422 340.055 18.2344 338.516 18.2344C337.141 18.2344 336.098 17.832 335.387 17.0273C334.684 16.2227 334.332 15.0586 334.332 13.5352V5.32031H337.18V13.5C337.18 15.1094 337.848 15.9141 339.184 15.9141C340.566 15.9141 341.5 15.418 341.984 14.4258V5.32031H344.832V18H342.148L342.078 16.7578ZM354.371 7.92188C353.996 7.85938 353.609 7.82812 353.211 7.82812C351.906 7.82812 351.027 8.32812 350.574 9.32812V18H347.727V5.32031H350.445L350.516 6.73828C351.203 5.63672 352.156 5.08594 353.375 5.08594C353.781 5.08594 354.117 5.14062 354.383 5.25L354.371 7.92188ZM361.52 18.2344C359.715 18.2344 358.25 17.668 357.125 16.5352C356.008 15.3945 355.449 13.8789 355.449 11.9883V11.6367C355.449 10.3711 355.691 9.24219 356.176 8.25C356.668 7.25 357.355 6.47266 358.238 5.91797C359.121 5.36328 360.105 5.08594 361.191 5.08594C362.918 5.08594 364.25 5.63672 365.188 6.73828C366.133 7.83984 366.605 9.39844 366.605 11.4141V12.5625H358.32C358.406 13.6094 358.754 14.4375 359.363 15.0469C359.98 15.6562 360.754 15.9609 361.684 15.9609C362.988 15.9609 364.051 15.4336 364.871 14.3789L366.406 15.8438C365.898 16.6016 365.219 17.1914 364.367 17.6133C363.523 18.0273 362.574 18.2344 361.52 18.2344ZM361.18 7.37109C360.398 7.37109 359.766 7.64453 359.281 8.19141C358.805 8.73828 358.5 9.5 358.367 10.4766H363.793V10.2656C363.73 9.3125 363.477 8.59375 363.031 8.10938C362.586 7.61719 361.969 7.37109 361.18 7.37109ZM382.379 18C382.254 17.7578 382.145 17.3633 382.051 16.8164C381.145 17.7617 380.035 18.2344 378.723 18.2344C377.449 18.2344 376.41 17.8711 375.605 17.1445C374.801 16.418 374.398 15.5195 374.398 14.4492C374.398 13.0977 374.898 12.0625 375.898 11.3438C376.906 10.6172 378.344 10.2539 380.211 10.2539H381.957V9.42188C381.957 8.76562 381.773 8.24219 381.406 7.85156C381.039 7.45312 380.48 7.25391 379.73 7.25391C379.082 7.25391 378.551 7.41797 378.137 7.74609C377.723 8.06641 377.516 8.47656 377.516 8.97656H374.668C374.668 8.28125 374.898 7.63281 375.359 7.03125C375.82 6.42188 376.445 5.94531 377.234 5.60156C378.031 5.25781 378.918 5.08594 379.895 5.08594C381.379 5.08594 382.562 5.46094 383.445 6.21094C384.328 6.95312 384.781 8 384.805 9.35156V15.0703C384.805 16.2109 384.965 17.1211 385.285 17.8008V18H382.379ZM379.25 15.9492C379.812 15.9492 380.34 15.8125 380.832 15.5391C381.332 15.2656 381.707 14.8984 381.957 14.4375V12.0469H380.422C379.367 12.0469 378.574 12.2305 378.043 12.5977C377.512 12.9648 377.246 13.4844 377.246 14.1562C377.246 14.7031 377.426 15.1406 377.785 15.4688C378.152 15.7891 378.641 15.9492 379.25 15.9492ZM390.43 5.32031L390.512 6.78516C391.449 5.65234 392.68 5.08594 394.203 5.08594C396.844 5.08594 398.188 6.59766 398.234 9.62109V18H395.387V9.78516C395.387 8.98047 395.211 8.38672 394.859 8.00391C394.516 7.61328 393.949 7.41797 393.16 7.41797C392.012 7.41797 391.156 7.9375 390.594 8.97656V18H387.746V5.32031H390.43ZM400.613 11.5664C400.613 9.61328 401.066 8.04688 401.973 6.86719C402.879 5.67969 404.094 5.08594 405.617 5.08594C406.961 5.08594 408.047 5.55469 408.875 6.49219V0H411.723V18H409.145L409.004 16.6875C408.152 17.7188 407.016 18.2344 405.594 18.2344C404.109 18.2344 402.906 17.6367 401.984 16.4414C401.07 15.2461 400.613 13.6211 400.613 11.5664ZM403.461 11.8125C403.461 13.1016 403.707 14.1094 404.199 14.8359C404.699 15.5547 405.406 15.9141 406.32 15.9141C407.484 15.9141 408.336 15.3945 408.875 14.3555V8.94141C408.352 7.92578 407.508 7.41797 406.344 7.41797C405.422 7.41797 404.711 7.78516 404.211 8.51953C403.711 9.24609 403.461 10.3438 403.461 11.8125ZM430.918 10.3828H423.91V15.6328H432.102V18H420.945V0.9375H432.02V3.32812H423.91V8.03906H430.918V10.3828ZM441.816 18C441.691 17.7578 441.582 17.3633 441.488 16.8164C440.582 17.7617 439.473 18.2344 438.16 18.2344C436.887 18.2344 435.848 17.8711 435.043 17.1445C434.238 16.418 433.836 15.5195 433.836 14.4492C433.836 13.0977 434.336 12.0625 435.336 11.3438C436.344 10.6172 437.781 10.2539 439.648 10.2539H441.395V9.42188C441.395 8.76562 441.211 8.24219 440.844 7.85156C440.477 7.45312 439.918 7.25391 439.168 7.25391C438.52 7.25391 437.988 7.41797 437.574 7.74609C437.16 8.06641 436.953 8.47656 436.953 8.97656H434.105C434.105 8.28125 434.336 7.63281 434.797 7.03125C435.258 6.42188 435.883 5.94531 436.672 5.60156C437.469 5.25781 438.355 5.08594 439.332 5.08594C440.816 5.08594 442 5.46094 442.883 6.21094C443.766 6.95312 444.219 8 444.242 9.35156V15.0703C444.242 16.2109 444.402 17.1211 444.723 17.8008V18H441.816ZM438.688 15.9492C439.25 15.9492 439.777 15.8125 440.27 15.5391C440.77 15.2656 441.145 14.8984 441.395 14.4375V12.0469H439.859C438.805 12.0469 438.012 12.2305 437.48 12.5977C436.949 12.9648 436.684 13.4844 436.684 14.1562C436.684 14.7031 436.863 15.1406 437.223 15.4688C437.59 15.7891 438.078 15.9492 438.688 15.9492ZM454.332 14.5547C454.332 14.0469 454.121 13.6602 453.699 13.3945C453.285 13.1289 452.594 12.8945 451.625 12.6914C450.656 12.4883 449.848 12.2305 449.199 11.918C447.777 11.2305 447.066 10.2344 447.066 8.92969C447.066 7.83594 447.527 6.92188 448.449 6.1875C449.371 5.45312 450.543 5.08594 451.965 5.08594C453.48 5.08594 454.703 5.46094 455.633 6.21094C456.57 6.96094 457.039 7.93359 457.039 9.12891H454.191C454.191 8.58203 453.988 8.12891 453.582 7.76953C453.176 7.40234 452.637 7.21875 451.965 7.21875C451.34 7.21875 450.828 7.36328 450.43 7.65234C450.039 7.94141 449.844 8.32812 449.844 8.8125C449.844 9.25 450.027 9.58984 450.395 9.83203C450.762 10.0742 451.504 10.3203 452.621 10.5703C453.738 10.8125 454.613 11.1055 455.246 11.4492C455.887 11.7852 456.359 12.1914 456.664 12.668C456.977 13.1445 457.133 13.7227 457.133 14.4023C457.133 15.543 456.66 16.4688 455.715 17.1797C454.77 17.8828 453.531 18.2344 452 18.2344C450.961 18.2344 450.035 18.0469 449.223 17.6719C448.41 17.2969 447.777 16.7812 447.324 16.125C446.871 15.4688 446.645 14.7617 446.645 14.0039H449.41C449.449 14.6758 449.703 15.1953 450.172 15.5625C450.641 15.9219 451.262 16.1016 452.035 16.1016C452.785 16.1016 453.355 15.9609 453.746 15.6797C454.137 15.3906 454.332 15.0156 454.332 14.5547ZM464.059 13.9219L466.637 5.32031H469.672L464.633 19.9219C463.859 22.0547 462.547 23.1211 460.695 23.1211C460.281 23.1211 459.824 23.0508 459.324 22.9102V20.707L459.863 20.7422C460.582 20.7422 461.121 20.6094 461.48 20.3438C461.848 20.0859 462.137 19.6484 462.348 19.0312L462.758 17.9414L458.305 5.32031H461.375L464.059 13.9219ZM480.863 2.23828V5.32031H483.102V7.42969H480.863V14.5078C480.863 14.9922 480.957 15.3438 481.145 15.5625C481.34 15.7734 481.684 15.8789 482.176 15.8789C482.504 15.8789 482.836 15.8398 483.172 15.7617V17.9648C482.523 18.1445 481.898 18.2344 481.297 18.2344C479.109 18.2344 478.016 17.0273 478.016 14.6133V7.42969H475.93V5.32031H478.016V2.23828H480.863ZM484.402 11.543C484.402 10.3008 484.648 9.18359 485.141 8.19141C485.633 7.19141 486.324 6.42578 487.215 5.89453C488.105 5.35547 489.129 5.08594 490.285 5.08594C491.996 5.08594 493.383 5.63672 494.445 6.73828C495.516 7.83984 496.094 9.30078 496.18 11.1211L496.191 11.7891C496.191 13.0391 495.949 14.1562 495.465 15.1406C494.988 16.125 494.301 16.8867 493.402 17.4258C492.512 17.9648 491.48 18.2344 490.309 18.2344C488.52 18.2344 487.086 17.6406 486.008 16.4531C484.938 15.2578 484.402 13.668 484.402 11.6836V11.543ZM487.25 11.7891C487.25 13.0938 487.52 14.1172 488.059 14.8594C488.598 15.5938 489.348 15.9609 490.309 15.9609C491.27 15.9609 492.016 15.5859 492.547 14.8359C493.086 14.0859 493.355 12.9883 493.355 11.543C493.355 10.2617 493.078 9.24609 492.523 8.49609C491.977 7.74609 491.23 7.37109 490.285 7.37109C489.355 7.37109 488.617 7.74219 488.07 8.48438C487.523 9.21875 487.25 10.3203 487.25 11.7891ZM517.332 0.9375V12.3398C517.332 14.1523 516.75 15.5898 515.586 16.6523C514.43 17.707 512.887 18.2344 510.957 18.2344C509.004 18.2344 507.453 17.7148 506.305 16.6758C505.156 15.6289 504.582 14.1797 504.582 12.3281V0.9375H507.535V12.3516C507.535 13.4922 507.824 14.3633 508.402 14.9648C508.98 15.5664 509.832 15.8672 510.957 15.8672C513.238 15.8672 514.379 14.6641 514.379 12.2578V0.9375H517.332ZM527.34 14.5547C527.34 14.0469 527.129 13.6602 526.707 13.3945C526.293 13.1289 525.602 12.8945 524.633 12.6914C523.664 12.4883 522.855 12.2305 522.207 11.918C520.785 11.2305 520.074 10.2344 520.074 8.92969C520.074 7.83594 520.535 6.92188 521.457 6.1875C522.379 5.45312 523.551 5.08594 524.973 5.08594C526.488 5.08594 527.711 5.46094 528.641 6.21094C529.578 6.96094 530.047 7.93359 530.047 9.12891H527.199C527.199 8.58203 526.996 8.12891 526.59 7.76953C526.184 7.40234 525.645 7.21875 524.973 7.21875C524.348 7.21875 523.836 7.36328 523.438 7.65234C523.047 7.94141 522.852 8.32812 522.852 8.8125C522.852 9.25 523.035 9.58984 523.402 9.83203C523.77 10.0742 524.512 10.3203 525.629 10.5703C526.746 10.8125 527.621 11.1055 528.254 11.4492C528.895 11.7852 529.367 12.1914 529.672 12.668C529.984 13.1445 530.141 13.7227 530.141 14.4023C530.141 15.543 529.668 16.4688 528.723 17.1797C527.777 17.8828 526.539 18.2344 525.008 18.2344C523.969 18.2344 523.043 18.0469 522.23 17.6719C521.418 17.2969 520.785 16.7812 520.332 16.125C519.879 15.4688 519.652 14.7617 519.652 14.0039H522.418C522.457 14.6758 522.711 15.1953 523.18 15.5625C523.648 15.9219 524.27 16.1016 525.043 16.1016C525.793 16.1016 526.363 15.9609 526.754 15.6797C527.145 15.3906 527.34 15.0156 527.34 14.5547ZM538.215 18.2344C536.41 18.2344 534.945 17.668 533.82 16.5352C532.703 15.3945 532.145 13.8789 532.145 11.9883V11.6367C532.145 10.3711 532.387 9.24219 532.871 8.25C533.363 7.25 534.051 6.47266 534.934 5.91797C535.816 5.36328 536.801 5.08594 537.887 5.08594C539.613 5.08594 540.945 5.63672 541.883 6.73828C542.828 7.83984 543.301 9.39844 543.301 11.4141V12.5625H535.016C535.102 13.6094 535.449 14.4375 536.059 15.0469C536.676 15.6562 537.449 15.9609 538.379 15.9609C539.684 15.9609 540.746 15.4336 541.566 14.3789L543.102 15.8438C542.594 16.6016 541.914 17.1914 541.062 17.6133C540.219 18.0273 539.27 18.2344 538.215 18.2344ZM537.875 7.37109C537.094 7.37109 536.461 7.64453 535.977 8.19141C535.5 8.73828 535.195 9.5 535.062 10.4766H540.488V10.2656C540.426 9.3125 540.172 8.59375 539.727 8.10938C539.281 7.61719 538.664 7.37109 537.875 7.37109Z" fill="white"/>
<path fill-rule="evenodd" clip-rule="evenodd" d="M65.2967 686.858C65.2967 692.567 60.7834 697.196 55.2167 697.196C49.65 697.196 45.1367 692.567 45.1367 686.858C45.1367 681.149 49.65 676.52 55.2167 676.52C60.7834 676.52 65.2967 681.149 65.2967 686.858Z" stroke="white" stroke-width="2.88" stroke-linecap="round"/>
<path d="M41.4688 710.354C41.4688 703.087 47.6227 697.196 55.2142 697.196C62.8057 697.196 68.9597 703.087 68.9597 710.354" stroke="white" stroke-width="2.88" stroke-linecap="round"/>
<path fill-rule="evenodd" clip-rule="evenodd" d="M43.3037 694.377C43.3037 698.01 40.432 700.956 36.8887 700.956C33.3463 700.956 30.4746 698.01 30.4746 694.377C30.4746 690.743 33.3463 687.798 36.8887 687.798C40.432 687.798 43.3037 690.743 43.3037 694.377Z" stroke="white" stroke-width="2.88" stroke-linecap="round"/>
<path d="M28.6416 710.354C28.6416 705.163 32.4872 700.956 37.2311 700.956C39.6026 700.956 41.7491 702.007 43.3034 703.707" stroke="white" stroke-width="2.88" stroke-linecap="round"/>
<path fill-rule="evenodd" clip-rule="evenodd" d="M722.76 711.521C715.072 711.521 708.84 717.753 708.84 725.441C708.84 732.466 714.045 738.277 720.809 739.225L722.049 739.399V740.651V745.167L732.033 735.854L732.021 735.833C734.882 733.281 736.68 729.572 736.68 725.441C736.68 717.753 730.448 711.521 722.76 711.521ZM734 737.927C737.412 734.854 739.56 730.397 739.56 725.441C739.56 716.162 732.038 708.641 722.76 708.641C713.482 708.641 705.96 716.162 705.96 725.441C705.96 733.487 711.616 740.21 719.169 741.856V748.48V751.793L721.591 749.533L734.011 737.947L734 737.927ZM713.641 725.44C713.641 730.477 717.724 734.56 722.761 734.56C727.798 734.56 731.881 730.477 731.881 725.44C731.881 720.404 727.798 716.32 722.761 716.32C717.724 716.32 713.641 720.404 713.641 725.44ZM722.761 713.44C716.133 713.44 710.761 718.813 710.761 725.44C710.761 732.068 716.133 737.44 722.761 737.44C729.388 737.44 734.761 732.068 734.761 725.44C734.761 718.813 729.388 713.44 722.761 713.44ZM725.16 720.64C725.16 719.845 724.515 719.2 723.72 719.2C722.925 719.2 722.28 719.845 722.28 720.64V724.96H719.4C718.605 724.96 717.96 725.605 717.96 726.4C717.96 727.196 718.605 727.84 719.4 727.84H723.72C724.515 727.84 725.16 727.196 725.16 726.4V720.64Z" fill="white"/>
<path fill-rule="evenodd" clip-rule="evenodd" d="M861.847 432.64C855.159 432.64 849.701 438.061 849.701 444.758C849.701 449.078 851.971 452.866 855.377 455.012C848.274 457.209 842.354 463.143 841.64 472.813L844.417 473.018C845.186 462.599 852.962 457.209 860.981 456.847C861.267 456.867 861.556 456.877 861.847 456.877C862.139 456.877 862.427 456.867 862.714 456.847C870.733 457.208 878.509 462.599 879.279 473.018L882.056 472.813C881.341 463.143 875.421 457.209 868.318 455.012C871.724 452.866 873.993 449.078 873.993 444.758C873.993 438.061 868.536 432.64 861.847 432.64ZM862.663 454.058C867.443 453.645 871.209 449.635 871.209 444.758C871.209 439.608 867.007 435.424 861.847 435.424C856.687 435.424 852.485 439.608 852.485 444.758C852.485 449.635 856.252 453.645 861.032 454.058C861.575 454.038 862.12 454.038 862.663 454.058Z" fill="white"/>
<path d="M253.535 501.467H260.273V503H251.65V488.781H253.535V501.467ZM266.514 503.195C265.081 503.195 263.916 502.727 263.018 501.789C262.119 500.845 261.67 499.585 261.67 498.01V497.678C261.67 496.63 261.868 495.695 262.266 494.875C262.669 494.048 263.229 493.404 263.945 492.941C264.668 492.473 265.449 492.238 266.289 492.238C267.663 492.238 268.73 492.691 269.492 493.596C270.254 494.501 270.635 495.796 270.635 497.482V498.234H263.477C263.503 499.276 263.805 500.119 264.385 500.764C264.971 501.402 265.713 501.721 266.611 501.721C267.249 501.721 267.79 501.59 268.232 501.33C268.675 501.07 269.062 500.725 269.395 500.295L270.498 501.154C269.613 502.515 268.285 503.195 266.514 503.195ZM266.289 493.723C265.56 493.723 264.948 493.99 264.453 494.523C263.958 495.051 263.652 495.793 263.535 496.75H268.828V496.613C268.776 495.695 268.529 494.986 268.086 494.484C267.643 493.977 267.044 493.723 266.289 493.723ZM275.186 489.875V492.434H277.158V493.83H275.186V500.383C275.186 500.806 275.273 501.125 275.449 501.34C275.625 501.548 275.924 501.652 276.348 501.652C276.556 501.652 276.842 501.613 277.207 501.535V503C276.732 503.13 276.27 503.195 275.82 503.195C275.013 503.195 274.404 502.951 273.994 502.463C273.584 501.975 273.379 501.281 273.379 500.383V493.83H271.455V492.434H273.379V489.875H275.186ZM279.404 492.785L278.379 492.082C278.984 491.236 279.297 490.344 279.316 489.406V488H281.104V489.27C281.097 489.921 280.934 490.572 280.615 491.223C280.303 491.867 279.899 492.388 279.404 492.785ZM288.34 500.197C288.34 499.709 288.154 499.331 287.783 499.064C287.419 498.791 286.777 498.557 285.859 498.361C284.948 498.166 284.222 497.932 283.682 497.658C283.148 497.385 282.751 497.059 282.49 496.682C282.236 496.304 282.109 495.855 282.109 495.334C282.109 494.468 282.474 493.736 283.203 493.137C283.939 492.538 284.876 492.238 286.016 492.238C287.214 492.238 288.184 492.548 288.926 493.166C289.674 493.785 290.049 494.576 290.049 495.539H288.232C288.232 495.044 288.021 494.618 287.598 494.26C287.181 493.902 286.654 493.723 286.016 493.723C285.358 493.723 284.844 493.866 284.473 494.152C284.102 494.439 283.916 494.813 283.916 495.275C283.916 495.712 284.089 496.04 284.434 496.262C284.779 496.483 285.4 496.695 286.299 496.896C287.204 497.098 287.936 497.339 288.496 497.619C289.056 497.899 289.469 498.238 289.736 498.635C290.01 499.025 290.146 499.504 290.146 500.07C290.146 501.014 289.769 501.773 289.014 502.346C288.258 502.912 287.279 503.195 286.074 503.195C285.228 503.195 284.479 503.046 283.828 502.746C283.177 502.447 282.666 502.03 282.295 501.496C281.93 500.956 281.748 500.373 281.748 499.748H283.555C283.587 500.354 283.828 500.835 284.277 501.193C284.733 501.545 285.332 501.721 286.074 501.721C286.758 501.721 287.305 501.584 287.715 501.311C288.132 501.031 288.34 500.66 288.34 500.197ZM301.699 501.721C302.344 501.721 302.907 501.525 303.389 501.135C303.87 500.744 304.137 500.256 304.189 499.67H305.898C305.866 500.275 305.658 500.852 305.273 501.398C304.889 501.945 304.375 502.382 303.73 502.707C303.092 503.033 302.415 503.195 301.699 503.195C300.26 503.195 299.115 502.717 298.262 501.76C297.415 500.796 296.992 499.481 296.992 497.814V497.512C296.992 496.483 297.181 495.568 297.559 494.768C297.936 493.967 298.477 493.345 299.18 492.902C299.889 492.46 300.726 492.238 301.689 492.238C302.874 492.238 303.857 492.593 304.639 493.303C305.426 494.012 305.846 494.934 305.898 496.066H304.189C304.137 495.383 303.877 494.823 303.408 494.387C302.946 493.944 302.373 493.723 301.689 493.723C300.771 493.723 300.059 494.055 299.551 494.719C299.049 495.376 298.799 496.33 298.799 497.58V497.922C298.799 499.139 299.049 500.077 299.551 500.734C300.052 501.392 300.768 501.721 301.699 501.721ZM307.451 497.619C307.451 496.584 307.653 495.653 308.057 494.826C308.467 493.999 309.033 493.361 309.756 492.912C310.485 492.463 311.315 492.238 312.246 492.238C313.685 492.238 314.847 492.736 315.732 493.732C316.624 494.729 317.07 496.053 317.07 497.707V497.834C317.07 498.863 316.872 499.787 316.475 500.607C316.084 501.421 315.521 502.056 314.785 502.512C314.056 502.967 313.216 503.195 312.266 503.195C310.833 503.195 309.671 502.697 308.779 501.701C307.894 500.705 307.451 499.387 307.451 497.746V497.619ZM309.268 497.834C309.268 499.006 309.538 499.947 310.078 500.656C310.625 501.366 311.354 501.721 312.266 501.721C313.184 501.721 313.913 501.363 314.453 500.646C314.993 499.924 315.264 498.915 315.264 497.619C315.264 496.46 314.987 495.523 314.434 494.807C313.887 494.084 313.158 493.723 312.246 493.723C311.354 493.723 310.635 494.077 310.088 494.787C309.541 495.497 309.268 496.512 309.268 497.834ZM321.045 492.434L321.104 493.762C321.911 492.746 322.965 492.238 324.268 492.238C326.501 492.238 327.627 493.498 327.646 496.018V503H325.84V496.008C325.833 495.246 325.658 494.683 325.312 494.318C324.974 493.954 324.443 493.771 323.721 493.771C323.135 493.771 322.62 493.928 322.178 494.24C321.735 494.553 321.39 494.963 321.143 495.471V503H319.336V492.434H321.045ZM332.08 492.434L332.139 493.762C332.946 492.746 334.001 492.238 335.303 492.238C337.536 492.238 338.662 493.498 338.682 496.018V503H336.875V496.008C336.868 495.246 336.693 494.683 336.348 494.318C336.009 493.954 335.479 493.771 334.756 493.771C334.17 493.771 333.656 493.928 333.213 494.24C332.77 494.553 332.425 494.963 332.178 495.471V503H330.371V492.434H332.08ZM345.791 503.195C344.359 503.195 343.193 502.727 342.295 501.789C341.396 500.845 340.947 499.585 340.947 498.01V497.678C340.947 496.63 341.146 495.695 341.543 494.875C341.947 494.048 342.507 493.404 343.223 492.941C343.945 492.473 344.727 492.238 345.566 492.238C346.94 492.238 348.008 492.691 348.77 493.596C349.531 494.501 349.912 495.796 349.912 497.482V498.234H342.754C342.78 499.276 343.083 500.119 343.662 500.764C344.248 501.402 344.99 501.721 345.889 501.721C346.527 501.721 347.067 501.59 347.51 501.33C347.952 501.07 348.34 500.725 348.672 500.295L349.775 501.154C348.89 502.515 347.562 503.195 345.791 503.195ZM345.566 493.723C344.837 493.723 344.225 493.99 343.73 494.523C343.236 495.051 342.93 495.793 342.812 496.75H348.105V496.613C348.053 495.695 347.806 494.986 347.363 494.484C346.921 493.977 346.322 493.723 345.566 493.723ZM356.25 501.721C356.895 501.721 357.458 501.525 357.939 501.135C358.421 500.744 358.688 500.256 358.74 499.67H360.449C360.417 500.275 360.208 500.852 359.824 501.398C359.44 501.945 358.926 502.382 358.281 502.707C357.643 503.033 356.966 503.195 356.25 503.195C354.811 503.195 353.665 502.717 352.812 501.76C351.966 500.796 351.543 499.481 351.543 497.814V497.512C351.543 496.483 351.732 495.568 352.109 494.768C352.487 493.967 353.027 493.345 353.73 492.902C354.44 492.46 355.277 492.238 356.24 492.238C357.425 492.238 358.408 492.593 359.189 493.303C359.977 494.012 360.397 494.934 360.449 496.066H358.74C358.688 495.383 358.428 494.823 357.959 494.387C357.497 493.944 356.924 493.723 356.24 493.723C355.322 493.723 354.609 494.055 354.102 494.719C353.6 495.376 353.35 496.33 353.35 497.58V497.922C353.35 499.139 353.6 500.077 354.102 500.734C354.603 501.392 355.319 501.721 356.25 501.721ZM364.932 489.875V492.434H366.904V493.83H364.932V500.383C364.932 500.806 365.02 501.125 365.195 501.34C365.371 501.548 365.671 501.652 366.094 501.652C366.302 501.652 366.589 501.613 366.953 501.535V503C366.478 503.13 366.016 503.195 365.566 503.195C364.759 503.195 364.15 502.951 363.74 502.463C363.33 501.975 363.125 501.281 363.125 500.383V493.83H361.201V492.434H363.125V489.875H364.932ZM383.34 500.51L385.371 492.434H387.178L384.102 503H382.637L380.068 494.992L377.568 503H376.104L373.037 492.434H374.834L376.914 500.344L379.375 492.434H380.83L383.34 500.51ZM390.986 503H389.18V492.434H390.986V503ZM389.033 489.631C389.033 489.338 389.121 489.09 389.297 488.889C389.479 488.687 389.746 488.586 390.098 488.586C390.449 488.586 390.716 488.687 390.898 488.889C391.081 489.09 391.172 489.338 391.172 489.631C391.172 489.924 391.081 490.168 390.898 490.363C390.716 490.559 390.449 490.656 390.098 490.656C389.746 490.656 389.479 490.559 389.297 490.363C389.121 490.168 389.033 489.924 389.033 489.631ZM396.338 489.875V492.434H398.311V493.83H396.338V500.383C396.338 500.806 396.426 501.125 396.602 501.34C396.777 501.548 397.077 501.652 397.5 501.652C397.708 501.652 397.995 501.613 398.359 501.535V503C397.884 503.13 397.422 503.195 396.973 503.195C396.165 503.195 395.557 502.951 395.146 502.463C394.736 501.975 394.531 501.281 394.531 500.383V493.83H392.607V492.434H394.531V489.875H396.338ZM402.236 493.713C403.037 492.73 404.079 492.238 405.361 492.238C407.594 492.238 408.721 493.498 408.74 496.018V503H406.934V496.008C406.927 495.246 406.751 494.683 406.406 494.318C406.068 493.954 405.537 493.771 404.814 493.771C404.229 493.771 403.714 493.928 403.271 494.24C402.829 494.553 402.484 494.963 402.236 495.471V503H400.43V488H402.236V493.713ZM424.531 496.721H418.564V503H416.689V488.781H425.498V490.324H418.564V495.188H424.531V496.721ZM432.314 494.055C432.041 494.009 431.745 493.986 431.426 493.986C430.241 493.986 429.437 494.491 429.014 495.5V503H427.207V492.434H428.965L428.994 493.654C429.587 492.71 430.426 492.238 431.514 492.238C431.865 492.238 432.132 492.284 432.314 492.375V494.055ZM435.947 503H434.141V492.434H435.947V503ZM433.994 489.631C433.994 489.338 434.082 489.09 434.258 488.889C434.44 488.687 434.707 488.586 435.059 488.586C435.41 488.586 435.677 488.687 435.859 488.889C436.042 489.09 436.133 489.338 436.133 489.631C436.133 489.924 436.042 490.168 435.859 490.363C435.677 490.559 435.41 490.656 435.059 490.656C434.707 490.656 434.44 490.559 434.258 490.363C434.082 490.168 433.994 489.924 433.994 489.631ZM443.232 503.195C441.8 503.195 440.635 502.727 439.736 501.789C438.838 500.845 438.389 499.585 438.389 498.01V497.678C438.389 496.63 438.587 495.695 438.984 494.875C439.388 494.048 439.948 493.404 440.664 492.941C441.387 492.473 442.168 492.238 443.008 492.238C444.382 492.238 445.449 492.691 446.211 493.596C446.973 494.501 447.354 495.796 447.354 497.482V498.234H440.195C440.221 499.276 440.524 500.119 441.104 500.764C441.689 501.402 442.432 501.721 443.33 501.721C443.968 501.721 444.508 501.59 444.951 501.33C445.394 501.07 445.781 500.725 446.113 500.295L447.217 501.154C446.331 502.515 445.003 503.195 443.232 503.195ZM443.008 493.723C442.279 493.723 441.667 493.99 441.172 494.523C440.677 495.051 440.371 495.793 440.254 496.75H445.547V496.613C445.495 495.695 445.247 494.986 444.805 494.484C444.362 493.977 443.763 493.723 443.008 493.723ZM451.162 492.434L451.221 493.762C452.028 492.746 453.083 492.238 454.385 492.238C456.618 492.238 457.744 493.498 457.764 496.018V503H455.957V496.008C455.951 495.246 455.775 494.683 455.43 494.318C455.091 493.954 454.561 493.771 453.838 493.771C453.252 493.771 452.738 493.928 452.295 494.24C451.852 494.553 451.507 494.963 451.26 495.471V503H449.453V492.434H451.162ZM460.049 497.629C460.049 496.008 460.433 494.706 461.201 493.723C461.969 492.733 462.975 492.238 464.219 492.238C465.456 492.238 466.436 492.661 467.158 493.508V488H468.965V503H467.305L467.217 501.867C466.494 502.753 465.488 503.195 464.199 503.195C462.975 503.195 461.976 502.694 461.201 501.691C460.433 500.689 460.049 499.38 460.049 497.766V497.629ZM461.855 497.834C461.855 499.032 462.103 499.969 462.598 500.646C463.092 501.324 463.776 501.662 464.648 501.662C465.794 501.662 466.631 501.148 467.158 500.119V495.266C466.618 494.27 465.788 493.771 464.668 493.771C463.783 493.771 463.092 494.113 462.598 494.797C462.103 495.48 461.855 496.493 461.855 497.834ZM477.93 500.197C477.93 499.709 477.744 499.331 477.373 499.064C477.008 498.791 476.367 498.557 475.449 498.361C474.538 498.166 473.812 497.932 473.271 497.658C472.738 497.385 472.34 497.059 472.08 496.682C471.826 496.304 471.699 495.855 471.699 495.334C471.699 494.468 472.064 493.736 472.793 493.137C473.529 492.538 474.466 492.238 475.605 492.238C476.803 492.238 477.773 492.548 478.516 493.166C479.264 493.785 479.639 494.576 479.639 495.539H477.822C477.822 495.044 477.611 494.618 477.188 494.26C476.771 493.902 476.243 493.723 475.605 493.723C474.948 493.723 474.434 493.866 474.062 494.152C473.691 494.439 473.506 494.813 473.506 495.275C473.506 495.712 473.678 496.04 474.023 496.262C474.368 496.483 474.99 496.695 475.889 496.896C476.794 497.098 477.526 497.339 478.086 497.619C478.646 497.899 479.059 498.238 479.326 498.635C479.6 499.025 479.736 499.504 479.736 500.07C479.736 501.014 479.359 501.773 478.604 502.346C477.848 502.912 476.868 503.195 475.664 503.195C474.818 503.195 474.069 503.046 473.418 502.746C472.767 502.447 472.256 502.03 471.885 501.496C471.52 500.956 471.338 500.373 471.338 499.748H473.145C473.177 500.354 473.418 500.835 473.867 501.193C474.323 501.545 474.922 501.721 475.664 501.721C476.348 501.721 476.895 501.584 477.305 501.311C477.721 501.031 477.93 500.66 477.93 500.197ZM486.67 499.182C486.67 498.498 486.859 497.87 487.236 497.297C487.62 496.724 488.35 496.057 489.424 495.295C488.792 494.527 488.369 493.908 488.154 493.439C487.939 492.971 487.832 492.505 487.832 492.043C487.832 490.962 488.151 490.116 488.789 489.504C489.427 488.892 490.293 488.586 491.387 488.586C492.363 488.586 493.171 488.872 493.809 489.445C494.447 490.012 494.766 490.728 494.766 491.594C494.766 492.167 494.619 492.697 494.326 493.186C494.04 493.667 493.535 494.175 492.812 494.709L491.768 495.48L494.932 499.26C495.374 498.413 495.596 497.473 495.596 496.438H497.227C497.227 498.098 496.826 499.475 496.025 500.568L498.057 503H495.889L494.941 501.877C494.46 502.307 493.893 502.635 493.242 502.863C492.598 503.085 491.94 503.195 491.27 503.195C489.883 503.195 488.77 502.827 487.93 502.092C487.09 501.356 486.67 500.386 486.67 499.182ZM491.27 501.721C492.227 501.721 493.102 501.356 493.896 500.627L490.43 496.477L490.107 496.711C489.02 497.512 488.477 498.335 488.477 499.182C488.477 499.95 488.724 500.565 489.219 501.027C489.72 501.49 490.404 501.721 491.27 501.721ZM489.639 491.984C489.639 492.609 490.023 493.391 490.791 494.328L491.943 493.518C492.386 493.205 492.689 492.909 492.852 492.629C493.014 492.342 493.096 491.997 493.096 491.594C493.096 491.158 492.933 490.796 492.607 490.51C492.282 490.217 491.872 490.07 491.377 490.07C490.843 490.07 490.42 490.253 490.107 490.617C489.795 490.975 489.639 491.431 489.639 491.984ZM512.578 496.721H506.611V503H504.736V488.781H513.545V490.324H506.611V495.188H512.578V496.721ZM521.699 503C521.595 502.792 521.51 502.421 521.445 501.887C520.605 502.759 519.603 503.195 518.438 503.195C517.396 503.195 516.54 502.902 515.869 502.316C515.205 501.724 514.873 500.975 514.873 500.07C514.873 498.97 515.29 498.117 516.123 497.512C516.963 496.9 518.141 496.594 519.658 496.594H521.416V495.764C521.416 495.132 521.227 494.631 520.85 494.26C520.472 493.882 519.915 493.693 519.18 493.693C518.535 493.693 517.995 493.856 517.559 494.182C517.122 494.507 516.904 494.901 516.904 495.363H515.088C515.088 494.836 515.273 494.328 515.645 493.84C516.022 493.345 516.53 492.954 517.168 492.668C517.812 492.382 518.519 492.238 519.287 492.238C520.505 492.238 521.458 492.544 522.148 493.156C522.839 493.762 523.197 494.598 523.223 495.666V500.529C523.223 501.499 523.346 502.271 523.594 502.844V503H521.699ZM518.701 501.623C519.268 501.623 519.805 501.477 520.312 501.184C520.82 500.891 521.188 500.51 521.416 500.041V497.873H520C517.786 497.873 516.68 498.521 516.68 499.816C516.68 500.383 516.868 500.826 517.246 501.145C517.624 501.464 518.109 501.623 518.701 501.623ZM527.754 492.434L527.803 493.605C528.577 492.694 529.622 492.238 530.938 492.238C532.415 492.238 533.421 492.805 533.955 493.938C534.307 493.43 534.762 493.02 535.322 492.707C535.889 492.395 536.556 492.238 537.324 492.238C539.642 492.238 540.82 493.465 540.859 495.92V503H539.053V496.027C539.053 495.272 538.88 494.709 538.535 494.338C538.19 493.96 537.611 493.771 536.797 493.771C536.126 493.771 535.57 493.973 535.127 494.377C534.684 494.774 534.427 495.311 534.355 495.988V503H532.539V496.076C532.539 494.54 531.787 493.771 530.283 493.771C529.098 493.771 528.288 494.276 527.852 495.285V503H526.045V492.434H527.754ZM545.557 503H543.75V492.434H545.557V503ZM543.604 489.631C543.604 489.338 543.691 489.09 543.867 488.889C544.049 488.687 544.316 488.586 544.668 488.586C545.02 488.586 545.286 488.687 545.469 488.889C545.651 489.09 545.742 489.338 545.742 489.631C545.742 489.924 545.651 490.168 545.469 490.363C545.286 490.559 545.02 490.656 544.668 490.656C544.316 490.656 544.049 490.559 543.867 490.363C543.691 490.168 543.604 489.924 543.604 489.631ZM550.42 503H548.613V488H550.42V503ZM556.777 500.354L559.238 492.434H561.172L556.924 504.631C556.266 506.389 555.221 507.268 553.789 507.268L553.447 507.238L552.773 507.111V505.646L553.262 505.686C553.874 505.686 554.349 505.562 554.688 505.314C555.033 505.067 555.316 504.615 555.537 503.957L555.938 502.883L552.168 492.434H554.141L556.777 500.354Z" fill="white"/>
<rect x="386" y="27" width="60" height="60" rx="30" fill="#53A8CB"/>
<rect x="679" y="148" width="60" height="60" rx="30" fill="#53A8CB"/>
<rect x="94" y="148" width="60" height="60" rx="30" fill="#53A8CB"/>
<path fill-rule="evenodd" clip-rule="evenodd" d="M416 46.7998C411.306 46.7998 407.5 50.6054 407.5 55.2998C407.5 59.5902 410.679 63.1381 414.809 63.7171V68.0497L421.682 61.6383L421.655 61.6457C423.401 60.089 424.5 57.8227 424.5 55.2998C424.5 50.6054 420.694 46.7998 416 46.7998Z" fill="white"/>
<path d="M414.809 63.7171H415.409V63.1953L414.893 63.1229L414.809 63.7171ZM414.809 68.0497H414.209V69.43L415.219 68.4885L414.809 68.0497ZM421.682 61.6383L422.092 62.077L421.525 61.0593L421.682 61.6383ZM421.655 61.6457L421.256 61.1979L421.813 62.2246L421.655 61.6457ZM408.1 55.2998C408.1 50.9368 411.637 47.3998 416 47.3998V46.1998C410.974 46.1998 406.9 50.274 406.9 55.2998H408.1ZM414.893 63.1229C411.054 62.5849 408.1 59.2868 408.1 55.2998H406.9C406.9 59.8935 410.303 63.6914 414.726 64.3113L414.893 63.1229ZM415.409 68.0497V63.7171H414.209V68.0497H415.409ZM421.273 61.1996L414.4 67.611L415.219 68.4885L422.092 62.077L421.273 61.1996ZM421.813 62.2246L421.84 62.2173L421.525 61.0593L421.498 61.0667L421.813 62.2246ZM423.9 55.2998C423.9 57.6446 422.879 59.7502 421.256 61.1979L422.055 62.0935C423.922 60.4277 425.1 58.0009 425.1 55.2998H423.9ZM416 47.3998C420.363 47.3998 423.9 50.9368 423.9 55.2998H425.1C425.1 50.274 421.026 46.1998 416 46.1998V47.3998Z" fill="white"/>
<path fill-rule="evenodd" clip-rule="evenodd" d="M130.715 179.851C130.147 179.283 129.222 179.283 128.654 179.851L127.415 181.089C127.027 181.477 126.905 182.031 127.046 182.524L126.579 182.991C126.579 182.991 126.579 182.991 126.579 182.991C126.247 183.323 124.181 182.814 121.684 180.317C119.187 177.82 118.677 175.755 119.009 175.423L119.476 174.955C119.608 174.993 119.744 175.012 119.881 175.012C120.254 175.012 120.627 174.87 120.912 174.586L122.15 173.348C122.718 172.78 122.718 171.856 122.15 171.287L117.388 166.527C117.113 166.251 116.747 166.1 116.357 166.1C115.968 166.1 115.602 166.251 115.327 166.527L114.089 167.765C113.701 168.153 113.578 168.707 113.72 169.2C113.72 169.2 113.324 169.599 113.304 169.625C111.987 171.088 111.74 173.393 112.613 176.149C113.468 178.847 115.312 181.705 117.804 184.196C120.296 186.688 123.154 188.531 125.853 189.386C126.937 189.73 127.951 189.9 128.872 189.9C130.381 189.9 131.64 189.442 132.543 188.54L132.802 188.28C132.932 188.318 133.068 188.337 133.207 188.337C133.597 188.337 133.963 188.186 134.238 187.911L135.476 186.672C136.045 186.105 136.045 185.18 135.476 184.611L130.715 179.851Z" fill="white"/>
<path fill-rule="evenodd" clip-rule="evenodd" d="M130.866 176.444C130.866 176.782 131.15 177.055 131.501 177.055C131.852 177.055 132.136 176.782 132.136 176.444C132.136 174.802 131.471 173.257 130.263 172.096C129.055 170.934 127.449 170.294 125.741 170.294C125.39 170.294 125.105 170.567 125.105 170.905C125.105 171.242 125.39 171.516 125.741 171.516C127.11 171.516 128.396 172.028 129.365 172.959C130.333 173.89 130.866 175.128 130.866 176.444Z" fill="white"/>
<path fill-rule="evenodd" clip-rule="evenodd" d="M132.484 169.109C130.391 167.168 127.607 166.1 124.647 166.1C124.243 166.1 123.915 166.404 123.915 166.778C123.915 167.153 124.243 167.457 124.647 167.457C127.217 167.457 129.632 168.384 131.449 170.069C133.266 171.753 134.267 173.993 134.267 176.375C134.267 176.75 134.594 177.053 134.999 177.053C135.403 177.053 135.731 176.75 135.731 176.375C135.731 173.63 134.578 171.05 132.484 169.109Z" fill="white"/>
<path fill-rule="evenodd" clip-rule="evenodd" d="M125.678 173.729C125.362 173.729 125.105 173.977 125.105 174.283C125.106 174.59 125.362 174.838 125.678 174.838H125.679C126.15 174.838 126.559 175.002 126.893 175.325C127.221 175.644 127.395 176.05 127.395 176.501C127.395 176.807 127.652 177.056 127.968 177.056C128.284 177.056 128.541 176.807 128.541 176.501C128.541 175.75 128.251 175.072 127.702 174.54C127.154 174.009 126.454 173.729 125.678 173.729Z" fill="white"/>
<path fill-rule="evenodd" clip-rule="evenodd" d="M713.336 181.071V182.27C713.336 184.299 711.675 185.96 709.646 185.96H700.79C698.761 185.96 697.1 184.299 697.1 182.27V174.89C697.1 172.861 698.761 171.2 700.79 171.2H709.646C711.675 171.2 713.336 172.861 713.336 174.89V175.997L720.9 171.385V185.775L713.336 181.071Z" fill="white" stroke="white" stroke-width="1.7"/>
<defs>
<linearGradient id="paint0_linear" x1="50" y1="644" x2="50" y2="744" gradientUnits="userSpaceOnUse">
<stop stop-color="#F08835"/>
<stop offset="1" stop-color="#FF7271"/>
</linearGradient>
<linearGradient id="paint1_linear" x1="722" y1="678" x2="722" y2="778" gradientUnits="userSpaceOnUse">
<stop stop-color="#C349F6"/>
<stop offset="1" stop-color="#FF71BE"/>
</linearGradient>
<linearGradient id="paint2_linear" x1="862" y1="408" x2="862" y2="508" gradientUnits="userSpaceOnUse">
<stop stop-color="#2F8DBE"/>
<stop offset="1" stop-color="#70B8FD"/>
</linearGradient>
</defs>
</svg>
